<svg width="20" height="18" xmlns="http://www.w3.org/2000/svg">
 <title/>
 <desc/>

 <g>
  <title>background</title>
  <rect fill="none" id="canvas_background" height="402" width="582" y="-1" x="-1"/>
 </g>
 <g>
  <title>Layer 1</title>
  <path fill="#637fd5" id="Shape" d="m18.3,1.7l-1.6,-1.7l-1.7,1.7l-1.7,-1.7l-1.7,1.7l-1.6,-1.7l-1.7,1.7l-1.6,-1.7l-1.7,1.7l-1.7,-1.7l-1.6,1.7l-1.7,-1.7l0,16c0,1.1 0.9,2 2,2l16,0c1.1,0 2,-0.9 2,-2l0,-16l-1.7,1.7l0,0zm-8.3,14.3l-8,0l0,-7l8,0l0,7l0,0zm8,0l-7,0l0,-1l7,0l0,1l0,0zm0,-2l-7,0l0,-1l7,0l0,1l0,0zm0,-2l-7,0l0,-1l7,0l0,1l0,0zm0,-2l-7,0l0,-1l7,0l0,1l0,0zm0,-2l-16,0l0,-3l16,0l0,3l0,0z"/>
 </g>
</svg>